<?xml version="1.0" encoding="utf-8"?>
<!-- Generated by IcoMoon.io -->
<!DOCTYPE svg PUBLIC "-//W3C//DTD SVG 1.1//EN" "http://www.w3.org/Graphics/SVG/1.1/DTD/svg11.dtd">
<svg version="1.1" xmlns="http://www.w3.org/2000/svg" xmlns:xlink="http://www.w3.org/1999/xlink" width="512" height="512" viewBox="0 0 512 512">
<g id="icomoon-ignore">
</g>
<path d="M256.003 0.001c-141.387 0-256.003 114.615-256.003 255.998 0 108.453 67.476 201.083 162.707 238.386-2.239-20.254-4.259-51.322 0.887-73.438 4.649-19.977 30.020-127.25 30.020-127.25s-7.66-15.332-7.66-38.004c0-35.595 20.634-62.168 46.322-62.168 21.84 0 32.392 16.397 32.392 36.060 0 21.964-13.982 54.802-21.202 85.232-6.030 25.486 12.778 46.268 37.907 46.268 45.504 0 80.479-47.98 80.479-117.233 0-61.292-44.044-104.149-106.934-104.149-72.839 0-115.593 54.637-115.593 111.095 0 22.004 8.475 45.598 19.051 58.422 2.091 2.535 2.396 4.758 1.774 7.34-1.942 8.090-6.261 25.48-7.108 29.038-1.117 4.684-3.711 5.678-8.562 3.421-31.975-14.885-51.963-61.632-51.963-99.174 0-80.755 58.674-154.917 169.147-154.917 88.805 0 157.817 63.28 157.817 147.852 0 88.229-55.628 159.233-132.838 159.233-25.943 0-50.326-13.479-58.675-29.398 0 0-12.836 48.883-15.947 60.855-5.782 22.234-21.384 50.109-31.821 67.113 23.955 7.416 49.409 11.416 75.802 11.416 141.384-0.001 255.998-114.615 255.998-256 0-141.383-114.614-255.998-255.997-255.998z"></path>
</svg>
