<?xml version="1.0" encoding="utf-8"?>
<!-- Generated by IcoMoon.io -->
<!DOCTYPE svg PUBLIC "-//W3C//DTD SVG 1.1//EN" "http://www.w3.org/Graphics/SVG/1.1/DTD/svg11.dtd">
<svg version="1.1" xmlns="http://www.w3.org/2000/svg" xmlns:xlink="http://www.w3.org/1999/xlink" width="512" height="512" viewBox="0 0 512 512">
<g id="icomoon-ignore">
</g>
<path d="M400 208c-35.29 0-64 28.71-64 64s28.71 64 64 64c35.29 0 64-28.71 64-64s-28.71-64-64-64zM400 160v0c61.855 0 112 50.144 112 112s-50.145 112-112 112-112-50.145-112-112c0-61.856 50.145-112 112-112zM0 272c0-61.856 50.144-112 112-112s112 50.144 112 112c0 61.856-50.144 112-112 112s-112-50.144-112-112z"></path>
</svg>
